<mxfile host="app.diagrams.net" modified="2022-12-06T08:36:42.286Z" agent="5.0 (Windows NT 10.0; Win64; x64) AppleWebKit/537.36 (KHTML, like Gecko) Chrome/107.0.0.0 Safari/537.36" version="20.6.0" etag="XIPDh87YqJt1c2bJfi2-" type="github">
  <diagram id="uTvn10iBEmc4ykx3VOdH" name="第 1 页">
    <mxGraphModel dx="1422" dy="698" grid="1" gridSize="10" guides="1" tooltips="1" connect="1" arrows="1" fold="1" page="1" pageScale="1" pageWidth="1200" pageHeight="1920" math="0" shadow="0">
      <root>
        <mxCell id="0" />
        <mxCell id="1" parent="0" />
        <mxCell id="qveKh9JpErM4dq6gs4iV-3" style="edgeStyle=orthogonalEdgeStyle;rounded=0;orthogonalLoop=1;jettySize=auto;html=1;" edge="1" parent="1" source="qveKh9JpErM4dq6gs4iV-1" target="qveKh9JpErM4dq6gs4iV-2">
          <mxGeometry relative="1" as="geometry" />
        </mxCell>
        <mxCell id="qveKh9JpErM4dq6gs4iV-1" value="字典类型" style="rounded=1;whiteSpace=wrap;html=1;" vertex="1" parent="1">
          <mxGeometry x="590" y="210" width="120" height="60" as="geometry" />
        </mxCell>
        <mxCell id="qveKh9JpErM4dq6gs4iV-2" value="字典值" style="rounded=1;whiteSpace=wrap;html=1;" vertex="1" parent="1">
          <mxGeometry x="590" y="420" width="120" height="60" as="geometry" />
        </mxCell>
        <mxCell id="qveKh9JpErM4dq6gs4iV-4" value="N" style="text;html=1;align=center;verticalAlign=middle;resizable=0;points=[];autosize=1;strokeColor=none;fillColor=none;" vertex="1" parent="1">
          <mxGeometry x="655" y="355" width="30" height="30" as="geometry" />
        </mxCell>
        <mxCell id="qveKh9JpErM4dq6gs4iV-5" value="1" style="text;html=1;align=center;verticalAlign=middle;resizable=0;points=[];autosize=1;strokeColor=none;fillColor=none;" vertex="1" parent="1">
          <mxGeometry x="645" y="265" width="30" height="30" as="geometry" />
        </mxCell>
        <mxCell id="qveKh9JpErM4dq6gs4iV-8" style="edgeStyle=orthogonalEdgeStyle;rounded=0;orthogonalLoop=1;jettySize=auto;html=1;entryX=0.5;entryY=0;entryDx=0;entryDy=0;" edge="1" parent="1" source="qveKh9JpErM4dq6gs4iV-6" target="qveKh9JpErM4dq6gs4iV-7">
          <mxGeometry relative="1" as="geometry" />
        </mxCell>
        <mxCell id="qveKh9JpErM4dq6gs4iV-6" value="店铺渠道配置表" style="rounded=1;whiteSpace=wrap;html=1;" vertex="1" parent="1">
          <mxGeometry x="170" y="210" width="120" height="60" as="geometry" />
        </mxCell>
        <mxCell id="qveKh9JpErM4dq6gs4iV-11" style="edgeStyle=orthogonalEdgeStyle;rounded=0;orthogonalLoop=1;jettySize=auto;html=1;entryX=0;entryY=0.5;entryDx=0;entryDy=0;" edge="1" parent="1" source="qveKh9JpErM4dq6gs4iV-7" target="qveKh9JpErM4dq6gs4iV-2">
          <mxGeometry relative="1" as="geometry" />
        </mxCell>
        <mxCell id="qveKh9JpErM4dq6gs4iV-7" value="店铺渠道配置值表" style="rounded=1;whiteSpace=wrap;html=1;" vertex="1" parent="1">
          <mxGeometry x="170" y="420" width="120" height="60" as="geometry" />
        </mxCell>
        <mxCell id="qveKh9JpErM4dq6gs4iV-9" value="1" style="text;html=1;align=center;verticalAlign=middle;resizable=0;points=[];autosize=1;strokeColor=none;fillColor=none;" vertex="1" parent="1">
          <mxGeometry x="235" y="285" width="30" height="30" as="geometry" />
        </mxCell>
        <mxCell id="qveKh9JpErM4dq6gs4iV-10" value="N" style="text;html=1;align=center;verticalAlign=middle;resizable=0;points=[];autosize=1;strokeColor=none;fillColor=none;" vertex="1" parent="1">
          <mxGeometry x="245" y="385" width="30" height="30" as="geometry" />
        </mxCell>
        <mxCell id="qveKh9JpErM4dq6gs4iV-12" value="N" style="text;html=1;align=center;verticalAlign=middle;resizable=0;points=[];autosize=1;strokeColor=none;fillColor=none;" vertex="1" parent="1">
          <mxGeometry x="305" y="425" width="30" height="30" as="geometry" />
        </mxCell>
        <mxCell id="qveKh9JpErM4dq6gs4iV-13" value="N" style="text;html=1;align=center;verticalAlign=middle;resizable=0;points=[];autosize=1;strokeColor=none;fillColor=none;" vertex="1" parent="1">
          <mxGeometry x="545" y="415" width="30" height="30" as="geometry" />
        </mxCell>
      </root>
    </mxGraphModel>
  </diagram>
</mxfile>
